<svg xmlns="http://www.w3.org/2000/svg" width="24.68" height="24.374" viewBox="0 0 24.68 24.374"><g transform="translate(0 -1.049)"><path d="M11.485,1.6a.942.942,0,0,1,1.713,0l3.073,6.441a.959.959,0,0,0,.72.54l6.872,1.033a.964.964,0,0,1,.771.672,1.012,1.012,0,0,1-.242,1.013L19.42,16.313a1.011,1.011,0,0,0-.275.875l1.173,7.08a1.006,1.006,0,0,1-.381.967.933.933,0,0,1-1.006.075l-6.146-3.343a.927.927,0,0,0-.889,0L5.749,25.31a.931.931,0,0,1-1.006-.075,1,1,0,0,1-.38-.967l1.173-7.08a1.009,1.009,0,0,0-.275-.875L.289,11.3a1.012,1.012,0,0,1-.242-1.013.965.965,0,0,1,.772-.672L7.691,8.581A.958.958,0,0,0,8.41,8.04Z" fill="#ffca1f"/></g></svg>