<svg xmlns="http://www.w3.org/2000/svg" width="56.774" height="45.462" viewBox="0 0 56.774 45.462"><g transform="translate(-260.362 -105.492)"><path d="M5.1,27.18H16.429v5.57H5.1ZM10.767,6.816H46.009l1.362,8.6H9.4l1.363-8.6Zm40.9,20.364v5.57H40.345V27.18ZM2.6,45.481h8.318a2.52,2.52,0,0,0,2.6-2.432V36.981H43.256v6.068a2.52,2.52,0,0,0,2.6,2.432h8.318a2.521,2.521,0,0,0,2.6-2.432V18.64l-5.726-5.816L49.156,3.381H34.675V.02H22.1V3.381H7.621L5.727,12.826,0,18.641V43.051a2.519,2.519,0,0,0,2.6,2.432Z" transform="translate(260.362 105.472)" fill="#0d8cfa"/><rect width="12" height="7" transform="translate(265.467 131.954)" fill="#0800ff"/><path d="M0,0H12V7H0Z" transform="translate(300.467 131.954)" fill="#0800ff"/></g></svg>