<svg xmlns="http://www.w3.org/2000/svg" xmlns:xlink="http://www.w3.org/1999/xlink" width="53.689" height="69.998" viewBox="0 0 53.689 69.998"><defs><filter id="a" x="10" y="0" width="43.688" height="69.998" filterUnits="userSpaceOnUse"><feOffset dy="3" input="SourceAlpha"/><feGaussianBlur stdDeviation="2" result="b"/><feFlood flood-opacity="0.161"/><feComposite operator="in" in2="b"/><feComposite in="SourceGraphic"/></filter><filter id="c" x="0" y="10.593" width="26.851" height="38.595" filterUnits="userSpaceOnUse"><feOffset dy="3" input="SourceAlpha"/><feGaussianBlur stdDeviation="2" result="d"/><feFlood flood-opacity="0.161"/><feComposite operator="in" in2="d"/><feComposite in="SourceGraphic"/></filter></defs><g transform="translate(6.001 2.998)"><g transform="translate(-1)"><g transform="matrix(1, 0, 0, 1, -5, -3)" filter="url(#a)"><path d="M13.37,29.23A50.737,50.737,0,0,0,11,44.47V57a1,1,0,0,0,1,1H22a1,1,0,0,0,1-1V45.53a43.169,43.169,0,0,1,8.46-25.95c.24-.33.49-.64.73-.95l4.6,4.55a1,1,0,0,0,1.69-.52L42.67,1.2A1.007,1.007,0,0,0,41.49.02L20.06,4.41a1,1,0,0,0-.5,1.69l4.04,4A54.99,54.99,0,0,0,17,20.26a58.929,58.929,0,0,0-3.63,8.97Z" transform="translate(5 3)" fill="#0d8cfa"/></g><g transform="matrix(1, 0, 0, 1, -5, -3)" filter="url(#c)"><path d="M9.53,37.19a53.4,53.4,0,0,1,1.93-8.56,61.371,61.371,0,0,1,3.75-9.27c.21-.42.43-.83.64-1.24A57.549,57.549,0,0,0,11,10.97a1,1,0,0,0-1.49-.08L1.3,17.73A.976.976,0,0,0,1.18,19,78.621,78.621,0,0,1,9.53,37.19Z" transform="translate(5 3)" fill="#0d8cfa"/></g></g></g></svg>