<svg xmlns="http://www.w3.org/2000/svg" width="43.111" height="40.819" viewBox="0 0 43.111 40.819"><g transform="translate(0)"><g transform="translate(0 0)"><path d="M165.735,31.8a5.778,5.778,0,0,0,1.482-3.96,4.879,4.879,0,0,0-1.534-3.588,5,5,0,0,0-3.637-1.515h-7.463a6.616,6.616,0,0,1,.215-.638,4.413,4.413,0,0,1,.3-.585q.188-.319.269-.478.485-.9.742-1.488a10.753,10.753,0,0,0,.512-1.595,8.177,8.177,0,0,0,.256-2.02c0-.425-.005-.771-.014-1.036a11.289,11.289,0,0,0-.134-1.2,6.633,6.633,0,0,0-.324-1.328,6.164,6.164,0,0,0-.647-1.2,3.752,3.752,0,0,0-1.078-1.076,5.946,5.946,0,0,0-1.617-.691,8.152,8.152,0,0,0-2.224-.279,1.669,1.669,0,0,0-1.212.505,4.611,4.611,0,0,0-.916,1.328,7.84,7.84,0,0,0-.526,1.382q-.148.585-.337,1.621-.243,1.117-.364,1.608a8.427,8.427,0,0,1-.472,1.289,4.067,4.067,0,0,1-.835,1.276,39.433,39.433,0,0,0-2.721,3.189q-1.321,1.7-2.721,3.215t-2.048,1.568a1.777,1.777,0,0,0-1.158.545,1.593,1.593,0,0,0-.485,1.156V44.852a1.58,1.58,0,0,0,.512,1.182,1.794,1.794,0,0,0,1.212.519,19.918,19.918,0,0,1,4.257,1.17q2.074.69,3.246,1.049t3.273.771a20.288,20.288,0,0,0,3.88.412H156.9a6.741,6.741,0,0,0,5.308-2.073,6.326,6.326,0,0,0,1.32-4.81,5.154,5.154,0,0,0,1.455-2.5,5.393,5.393,0,0,0,0-3.109,5.464,5.464,0,0,0,1.158-3.641A6.258,6.258,0,0,0,165.735,31.8Z" transform="translate(-124.106 -9.136)" fill="#0d8cfa"/><path d="M9.484,191.864H1.725a1.669,1.669,0,0,0-1.213.505,1.623,1.623,0,0,0-.512,1.2v17.008a1.625,1.625,0,0,0,.512,1.2,1.671,1.671,0,0,0,1.213.5h7.76a1.67,1.67,0,0,0,1.212-.5,1.625,1.625,0,0,0,.512-1.2V193.565a1.624,1.624,0,0,0-.512-1.2A1.668,1.668,0,0,0,9.484,191.864Zm-3.1,16.516a1.691,1.691,0,0,1-1.212.492,1.678,1.678,0,0,1-1.226-.492,1.7,1.7,0,0,1,0-2.4,1.724,1.724,0,0,1,2.438,0,1.668,1.668,0,0,1,0,2.4Z" transform="translate(0 -174.856)" fill="#0d8cfa"/></g></g></svg>