<svg xmlns="http://www.w3.org/2000/svg" width="43.11" height="40.819" viewBox="0 0 43.11 40.819"><g transform="translate(43.11 40.819) rotate(180)"><path d="M28.7,22.668a5.778,5.778,0,0,0,1.482-3.96,4.879,4.879,0,0,0-1.534-3.588,5,5,0,0,0-3.637-1.515H17.543a6.62,6.62,0,0,1,.215-.638,4.415,4.415,0,0,1,.3-.585q.188-.319.269-.478.485-.9.741-1.488a10.751,10.751,0,0,0,.511-1.595,8.177,8.177,0,0,0,.256-2.02c0-.425-.005-.771-.014-1.036a11.289,11.289,0,0,0-.134-1.2,6.632,6.632,0,0,0-.324-1.328,6.165,6.165,0,0,0-.647-1.2A3.752,3.752,0,0,0,17.636.97,5.946,5.946,0,0,0,16.019.279,8.152,8.152,0,0,0,13.8,0a1.669,1.669,0,0,0-1.212.505,4.612,4.612,0,0,0-.916,1.328,7.841,7.841,0,0,0-.526,1.382q-.148.585-.336,1.621-.243,1.117-.364,1.608a8.423,8.423,0,0,1-.472,1.289,4.066,4.066,0,0,1-.835,1.276A39.438,39.438,0,0,0,6.413,12.2q-1.321,1.7-2.721,3.215T1.643,16.981a1.777,1.777,0,0,0-1.158.545A1.593,1.593,0,0,0,0,18.682V35.716A1.58,1.58,0,0,0,.512,36.9a1.794,1.794,0,0,0,1.212.519,19.917,19.917,0,0,1,4.257,1.17q2.074.69,3.246,1.049t3.273.771a20.288,20.288,0,0,0,3.88.412h3.476a6.741,6.741,0,0,0,5.308-2.073,6.326,6.326,0,0,0,1.32-4.81,5.153,5.153,0,0,0,1.455-2.5,5.393,5.393,0,0,0,0-3.109A5.464,5.464,0,0,0,29.1,24.689,6.258,6.258,0,0,0,28.7,22.668Z" transform="translate(12.933)" fill="#0d8cfa"/><path d="M9.484,0H1.725A1.669,1.669,0,0,0,.512.505,1.623,1.623,0,0,0,0,1.7V18.709a1.625,1.625,0,0,0,.512,1.2,1.671,1.671,0,0,0,1.213.5h7.76a1.67,1.67,0,0,0,1.212-.5,1.625,1.625,0,0,0,.512-1.2V1.7A1.624,1.624,0,0,0,10.7.505,1.668,1.668,0,0,0,9.484,0Zm-3.1,16.516a1.691,1.691,0,0,1-1.212.492,1.678,1.678,0,0,1-1.226-.492,1.7,1.7,0,0,1,0-2.4,1.724,1.724,0,0,1,2.438,0,1.668,1.668,0,0,1,0,2.4Z" transform="translate(0 17.008)" fill="#0d8cfa"/></g></svg>