<svg xmlns="http://www.w3.org/2000/svg" width="17.208" height="16.52" viewBox="0 0 17.208 16.52"><g transform="translate(17.208 25.656) rotate(180)"><g transform="translate(0 9.136)"><path d="M148.493,18.31a2.357,2.357,0,0,0,.592-1.6,2.093,2.093,0,0,0-2.064-2.065h-2.979a2.7,2.7,0,0,1,.086-.258,1.8,1.8,0,0,1,.118-.237q.075-.129.107-.194.194-.365.3-.6a4.394,4.394,0,0,0,.2-.645,3.353,3.353,0,0,0,.1-.817c0-.172,0-.312-.005-.419a4.626,4.626,0,0,0-.054-.484,2.715,2.715,0,0,0-.129-.538,2.506,2.506,0,0,0-.258-.484,1.508,1.508,0,0,0-.43-.436,2.357,2.357,0,0,0-.645-.28,3.212,3.212,0,0,0-.888-.113.662.662,0,0,0-.484.2,1.867,1.867,0,0,0-.366.538,3.2,3.2,0,0,0-.21.559q-.059.237-.134.656-.1.452-.145.651a3.44,3.44,0,0,1-.188.522,1.648,1.648,0,0,1-.333.516,15.9,15.9,0,0,0-1.086,1.291q-.527.688-1.086,1.3t-.817.635a.705.705,0,0,0-.462.221.649.649,0,0,0-.194.468v6.894a.644.644,0,0,0,.2.479.711.711,0,0,0,.484.21,7.863,7.863,0,0,1,1.7.473q.828.279,1.3.425t1.307.312a7.991,7.991,0,0,0,1.549.167h1.387a2.672,2.672,0,0,0,2.119-.839,2.585,2.585,0,0,0,.527-1.947,2.092,2.092,0,0,0,.581-1.011,2.212,2.212,0,0,0,0-1.258,2.232,2.232,0,0,0,.462-1.473A2.563,2.563,0,0,0,148.493,18.31Z" transform="translate(-131.877 -9.136)" fill="#0d8cfa"/><path d="M3.786,191.864H.688a.662.662,0,0,0-.484.2.661.661,0,0,0-.2.484v6.883a.662.662,0,0,0,.2.484.663.663,0,0,0,.484.2h3.1a.7.7,0,0,0,.688-.688v-6.883a.7.7,0,0,0-.688-.688Zm-1.237,6.684a.67.67,0,0,1-.484.2.688.688,0,0,1-.489-1.172.681.681,0,0,1,.973,0,.681.681,0,0,1,0,.973Z" transform="translate(0 -184.981)" fill="#0d8cfa"/></g></g></svg>